<svg width="268" height="32" viewBox="0 0 268 32" fill="none" xmlns="http://www.w3.org/2000/svg">
<path opacity="0.5" d="M4.64829 9.088C5.84729 9.088 6.88129 8.67 7.58529 7.878L6.87029 7.185C6.27629 7.812 5.55029 8.109 4.70329 8.109C2.96529 8.109 1.67829 6.855 1.67829 5.15C1.67829 3.445 2.96529 2.191 4.70329 2.191C5.55029 2.191 6.27629 2.477 6.87029 3.104L7.58529 2.411C6.88129 1.619 5.84729 1.212 4.65929 1.212C2.31629 1.212 0.578293 2.873 0.578293 5.15C0.578293 7.427 2.31629 9.088 4.64829 9.088ZM11.2504 9.066C12.9994 9.066 14.2754 7.823 14.2754 6.085C14.2754 4.347 12.9994 3.115 11.2504 3.115C9.50144 3.115 8.21444 4.347 8.21444 6.085C8.21444 7.823 9.50144 9.066 11.2504 9.066ZM11.2504 8.142C10.1284 8.142 9.28144 7.328 9.28144 6.085C9.28144 4.842 10.1284 4.039 11.2504 4.039C12.3724 4.039 13.2084 4.842 13.2084 6.085C13.2084 7.328 12.3724 8.142 11.2504 8.142ZM18.8269 3.115C17.9689 3.115 17.2209 3.445 16.7479 4.094V3.17H15.7359V11.134H16.7919V8.12C17.2759 8.747 18.0019 9.066 18.8269 9.066C20.5319 9.066 21.7749 7.878 21.7749 6.085C21.7749 4.303 20.5319 3.115 18.8269 3.115ZM18.7389 8.142C17.6279 8.142 16.7809 7.328 16.7809 6.085C16.7809 4.853 17.6279 4.039 18.7389 4.039C19.8609 4.039 20.7079 4.853 20.7079 6.085C20.7079 7.328 19.8609 8.142 18.7389 8.142ZM27.1978 3.17L25.1848 7.834L23.1498 3.17H22.0498L24.6238 8.989L24.4368 9.396C24.1508 10.067 23.8318 10.298 23.3258 10.298C22.9298 10.298 22.5668 10.144 22.2808 9.869L21.8298 10.661C22.1928 11.013 22.7648 11.2 23.3258 11.2C24.2168 11.2 24.8878 10.815 25.4048 9.583L28.2318 3.17H27.1978ZM30.2293 4.149V3.17H29.2173V9H30.2733V6.096C30.2733 4.82 30.9773 4.127 32.1103 4.127C32.1873 4.127 32.2643 4.127 32.3523 4.138V3.115C31.3293 3.115 30.6033 3.467 30.2293 4.149ZM34.1818 2.048C34.5998 2.048 34.8968 1.74 34.8968 1.344C34.8968 0.97 34.5888 0.673 34.1818 0.673C33.7748 0.673 33.4668 0.981 33.4668 1.366C33.4668 1.751 33.7748 2.048 34.1818 2.048ZM33.6538 9H34.7098V3.17H33.6538V9ZM41.3021 3.17V4.072C40.8071 3.434 40.0151 3.115 39.1461 3.115C37.4631 3.115 36.1871 4.248 36.1871 5.931C36.1871 7.614 37.4631 8.758 39.1461 8.758C39.9821 8.758 40.7411 8.461 41.2471 7.856V8.318C41.2471 9.638 40.6201 10.276 39.2451 10.276C38.3871 10.276 37.5401 9.979 37.0011 9.517L36.4951 10.331C37.1331 10.903 38.2111 11.2 39.2781 11.2C41.2581 11.2 42.3031 10.265 42.3031 8.208V3.17H41.3021ZM39.2671 7.834C38.0901 7.834 37.2541 7.053 37.2541 5.931C37.2541 4.798 38.0901 4.039 39.2671 4.039C40.4331 4.039 41.2691 4.798 41.2691 5.931C41.2691 7.053 40.4331 7.834 39.2671 7.834ZM47.4338 3.115C46.5428 3.115 45.8168 3.434 45.3768 3.995V0.838H44.3208V9H45.3768V5.997C45.3768 4.732 46.1028 4.061 47.2248 4.061C48.2258 4.061 48.7978 4.622 48.7978 5.766V9H49.8538V5.645C49.8538 3.929 48.8528 3.115 47.4338 3.115ZM54.7561 7.9C54.5361 8.076 54.2391 8.175 53.9311 8.175C53.3481 8.175 53.0181 7.823 53.0181 7.196V4.039H54.6901V3.17H53.0181V1.894H51.9621V3.17H50.9721V4.039H51.9621V7.24C51.9621 8.417 52.6331 9.066 53.8101 9.066C54.2831 9.066 54.7671 8.934 55.0861 8.659L54.7561 7.9ZM60.3069 8.043L62.6609 5.777C63.7059 4.776 63.9259 4.105 63.9259 3.357C63.9259 2.037 62.8919 1.212 61.2859 1.212C60.0869 1.212 59.0639 1.641 58.4699 2.378L59.2179 3.027C59.6909 2.455 60.3619 2.191 61.1869 2.191C62.2649 2.191 62.8259 2.675 62.8259 3.467C62.8259 3.951 62.6719 4.435 61.8579 5.227L58.7229 8.252V9H64.2559V8.043H60.3069ZM68.2741 9.088C70.0671 9.088 71.4091 7.658 71.4091 5.15C71.4091 2.642 70.0671 1.212 68.2741 1.212C66.4701 1.212 65.1281 2.642 65.1281 5.15C65.1281 7.658 66.4701 9.088 68.2741 9.088ZM68.2741 8.109C67.0641 8.109 66.2281 7.119 66.2281 5.15C66.2281 3.181 67.0641 2.191 68.2741 2.191C69.4731 2.191 70.3091 3.181 70.3091 5.15C70.3091 7.119 69.4731 8.109 68.2741 8.109ZM71.9928 1.3V2.257H73.7308V9H74.8198V1.3H71.9928ZM79.0011 1.212C77.4721 1.212 76.2841 2.158 76.2841 3.643C76.2841 5.062 77.3841 5.975 78.9131 5.975C79.8701 5.975 80.6841 5.634 81.1351 4.963V5.238C81.1351 7.163 80.1451 8.142 78.5831 8.142C78.0221 8.142 77.5051 8.043 77.0981 7.779L76.6801 8.637C77.1751 8.945 77.8681 9.088 78.5941 9.088C80.7501 9.088 82.2351 7.68 82.2351 5.051C82.2351 2.598 81.0691 1.212 79.0011 1.212ZM79.1001 5.084C78.0221 5.084 77.3511 4.501 77.3511 3.599C77.3511 2.686 78.0441 2.103 79.0451 2.103C80.2441 2.103 80.8821 2.796 80.8821 3.588C80.8821 4.435 80.1561 5.084 79.1001 5.084ZM83.8902 9.066C84.2862 9.066 84.6162 8.747 84.6162 8.307C84.6162 7.867 84.2862 7.559 83.8902 7.559C83.4832 7.559 83.1422 7.867 83.1422 8.307C83.1422 8.747 83.4832 9.066 83.8902 9.066ZM91.4815 9.088C93.5165 9.088 94.4625 8.076 94.4625 6.899C94.4625 4.072 89.7985 5.249 89.7985 3.368C89.7985 2.697 90.3595 2.147 91.6685 2.147C92.3505 2.147 93.1095 2.345 93.7805 2.774L94.1435 1.894C93.5055 1.454 92.5705 1.212 91.6685 1.212C89.6445 1.212 88.7205 2.224 88.7205 3.412C88.7205 6.272 93.3845 5.084 93.3845 6.965C93.3845 7.636 92.8125 8.153 91.4815 8.153C90.4915 8.153 89.5125 7.779 88.9405 7.262L88.5335 8.12C89.1495 8.692 90.3045 9.088 91.4815 9.088ZM98.0386 3.115C97.1036 3.115 96.2346 3.379 95.6296 3.863L96.0696 4.655C96.5206 4.27 97.2246 4.028 97.9176 4.028C98.9626 4.028 99.4796 4.545 99.4796 5.436V5.645H97.8076C96.0696 5.645 95.4646 6.415 95.4646 7.35C95.4646 8.362 96.3006 9.066 97.6206 9.066C98.5336 9.066 99.1826 8.758 99.5346 8.23V9H100.536V5.48C100.536 3.885 99.6336 3.115 98.0386 3.115ZM97.7966 8.252C96.9936 8.252 96.5096 7.889 96.5096 7.306C96.5096 6.811 96.8066 6.404 97.8516 6.404H99.4796V7.218C99.2156 7.889 98.5886 8.252 97.7966 8.252ZM109.783 3.115C108.793 3.115 107.979 3.533 107.539 4.193C107.154 3.467 106.406 3.115 105.515 3.115C104.635 3.115 103.92 3.445 103.502 4.039V3.17H102.49V9H103.546V5.997C103.546 4.732 104.239 4.061 105.295 4.061C106.252 4.061 106.802 4.622 106.802 5.766V9H107.858V5.997C107.858 4.732 108.551 4.061 109.607 4.061C110.564 4.061 111.114 4.622 111.114 5.766V9H112.17V5.645C112.17 3.929 111.202 3.115 109.783 3.115ZM117.204 3.115C116.346 3.115 115.598 3.445 115.125 4.094V3.17H114.113V11.134H115.169V8.12C115.653 8.747 116.379 9.066 117.204 9.066C118.909 9.066 120.152 7.878 120.152 6.085C120.152 4.303 118.909 3.115 117.204 3.115ZM117.116 8.142C116.005 8.142 115.158 7.328 115.158 6.085C115.158 4.853 116.005 4.039 117.116 4.039C118.238 4.039 119.085 4.853 119.085 6.085C119.085 7.328 118.238 8.142 117.116 8.142ZM121.611 9H122.667V0.838H121.611V9ZM128.808 3.17L126.795 7.834L124.76 3.17H123.66L126.234 8.989L126.047 9.396C125.761 10.067 125.442 10.298 124.936 10.298C124.54 10.298 124.177 10.144 123.891 9.869L123.44 10.661C123.803 11.013 124.375 11.2 124.936 11.2C125.827 11.2 126.498 10.815 127.015 9.583L129.842 3.17H128.808ZM133.937 7.9C133.717 8.076 133.42 8.175 133.112 8.175C132.529 8.175 132.199 7.823 132.199 7.196V4.039H133.871V3.17H132.199V1.894H131.143V3.17H130.153V4.039H131.143V7.24C131.143 8.417 131.814 9.066 132.991 9.066C133.464 9.066 133.948 8.934 134.267 8.659L133.937 7.9ZM136.071 2.048C136.489 2.048 136.786 1.74 136.786 1.344C136.786 0.97 136.478 0.673 136.071 0.673C135.664 0.673 135.356 0.981 135.356 1.366C135.356 1.751 135.664 2.048 136.071 2.048ZM135.543 9H136.599V3.17H135.543V9ZM141.157 9.066C142.202 9.066 143.071 8.626 143.533 7.812L142.73 7.306C142.356 7.878 141.784 8.142 141.146 8.142C140.002 8.142 139.144 7.35 139.144 6.085C139.144 4.842 140.002 4.039 141.146 4.039C141.784 4.039 142.356 4.303 142.73 4.875L143.533 4.358C143.071 3.544 142.202 3.115 141.157 3.115C139.364 3.115 138.077 4.347 138.077 6.085C138.077 7.823 139.364 9.066 141.157 9.066ZM146.572 9.066C148.123 9.066 149.091 8.395 149.091 7.339C149.091 5.073 145.395 6.195 145.395 4.82C145.395 4.358 145.846 4.017 146.77 4.017C147.342 4.017 147.925 4.138 148.453 4.479L148.904 3.643C148.398 3.313 147.54 3.115 146.781 3.115C145.285 3.115 144.35 3.819 144.35 4.864C144.35 7.185 148.035 6.052 148.035 7.361C148.035 7.856 147.628 8.153 146.649 8.153C145.89 8.153 145.098 7.9 144.603 7.548L144.163 8.384C144.647 8.769 145.604 9.066 146.572 9.066ZM155.048 9H156.137V2.257H158.777V1.3H152.408V2.257H155.048V9ZM164.488 6.118C164.488 4.325 163.289 3.115 161.606 3.115C159.923 3.115 158.68 4.358 158.68 6.085C158.68 7.823 159.934 9.066 161.815 9.066C162.783 9.066 163.586 8.736 164.114 8.12L163.531 7.438C163.102 7.911 162.53 8.142 161.848 8.142C160.693 8.142 159.868 7.46 159.736 6.437H164.466C164.477 6.338 164.488 6.206 164.488 6.118ZM161.606 4.006C162.629 4.006 163.366 4.699 163.476 5.678H159.736C159.846 4.688 160.594 4.006 161.606 4.006ZM168.496 9.066C169.541 9.066 170.41 8.626 170.872 7.812L170.069 7.306C169.695 7.878 169.123 8.142 168.485 8.142C167.341 8.142 166.483 7.35 166.483 6.085C166.483 4.842 167.341 4.039 168.485 4.039C169.123 4.039 169.695 4.303 170.069 4.875L170.872 4.358C170.41 3.544 169.541 3.115 168.496 3.115C166.703 3.115 165.416 4.347 165.416 6.085C165.416 7.823 166.703 9.066 168.496 9.066ZM175.277 3.115C174.386 3.115 173.66 3.434 173.22 3.995V0.838H172.164V9H173.22V5.997C173.22 4.732 173.946 4.061 175.068 4.061C176.069 4.061 176.641 4.622 176.641 5.766V9H177.697V5.645C177.697 3.929 176.696 3.115 175.277 3.115ZM182.764 3.115C181.84 3.115 181.092 3.456 180.663 4.05V3.17H179.651V9H180.707V5.997C180.707 4.732 181.433 4.061 182.555 4.061C183.556 4.061 184.128 4.622 184.128 5.766V9H185.184V5.645C185.184 3.929 184.183 3.115 182.764 3.115ZM189.667 9.066C191.416 9.066 192.692 7.823 192.692 6.085C192.692 4.347 191.416 3.115 189.667 3.115C187.918 3.115 186.631 4.347 186.631 6.085C186.631 7.823 187.918 9.066 189.667 9.066ZM189.667 8.142C188.545 8.142 187.698 7.328 187.698 6.085C187.698 4.842 188.545 4.039 189.667 4.039C190.789 4.039 191.625 4.842 191.625 6.085C191.625 7.328 190.789 8.142 189.667 8.142ZM194.153 9H195.209V0.838H194.153V9ZM199.722 9.066C201.471 9.066 202.747 7.823 202.747 6.085C202.747 4.347 201.471 3.115 199.722 3.115C197.973 3.115 196.686 4.347 196.686 6.085C196.686 7.823 197.973 9.066 199.722 9.066ZM199.722 8.142C198.6 8.142 197.753 7.328 197.753 6.085C197.753 4.842 198.6 4.039 199.722 4.039C200.844 4.039 201.68 4.842 201.68 6.085C201.68 7.328 200.844 8.142 199.722 8.142ZM208.784 3.17V4.072C208.289 3.434 207.497 3.115 206.628 3.115C204.945 3.115 203.669 4.248 203.669 5.931C203.669 7.614 204.945 8.758 206.628 8.758C207.464 8.758 208.223 8.461 208.729 7.856V8.318C208.729 9.638 208.102 10.276 206.727 10.276C205.869 10.276 205.022 9.979 204.483 9.517L203.977 10.331C204.615 10.903 205.693 11.2 206.76 11.2C208.74 11.2 209.785 10.265 209.785 8.208V3.17H208.784ZM206.749 7.834C205.572 7.834 204.736 7.053 204.736 5.931C204.736 4.798 205.572 4.039 206.749 4.039C207.915 4.039 208.751 4.798 208.751 5.931C208.751 7.053 207.915 7.834 206.749 7.834ZM212.33 2.048C212.748 2.048 213.045 1.74 213.045 1.344C213.045 0.97 212.737 0.673 212.33 0.673C211.923 0.673 211.615 0.981 211.615 1.366C211.615 1.751 211.923 2.048 212.33 2.048ZM211.802 9H212.858V3.17H211.802V9ZM220.144 6.118C220.144 4.325 218.945 3.115 217.262 3.115C215.579 3.115 214.336 4.358 214.336 6.085C214.336 7.823 215.59 9.066 217.471 9.066C218.439 9.066 219.242 8.736 219.77 8.12L219.187 7.438C218.758 7.911 218.186 8.142 217.504 8.142C216.349 8.142 215.524 7.46 215.392 6.437H220.122C220.133 6.338 220.144 6.206 220.144 6.118ZM217.262 4.006C218.285 4.006 219.022 4.699 219.132 5.678H215.392C215.502 4.688 216.25 4.006 217.262 4.006ZM223.282 9.066C224.833 9.066 225.801 8.395 225.801 7.339C225.801 5.073 222.105 6.195 222.105 4.82C222.105 4.358 222.556 4.017 223.48 4.017C224.052 4.017 224.635 4.138 225.163 4.479L225.614 3.643C225.108 3.313 224.25 3.115 223.491 3.115C221.995 3.115 221.06 3.819 221.06 4.864C221.06 7.185 224.745 6.052 224.745 7.361C224.745 7.856 224.338 8.153 223.359 8.153C222.6 8.153 221.808 7.9 221.313 7.548L220.873 8.384C221.357 8.769 222.314 9.066 223.282 9.066ZM233.232 1.3H230.229V9H231.329V6.668H233.232C235.234 6.668 236.444 5.656 236.444 3.984C236.444 2.312 235.234 1.3 233.232 1.3ZM233.199 5.711H231.329V2.257H233.199C234.607 2.257 235.344 2.884 235.344 3.984C235.344 5.084 234.607 5.711 233.199 5.711ZM238.821 4.149V3.17H237.809V9H238.865V6.096C238.865 4.82 239.569 4.127 240.702 4.127C240.779 4.127 240.856 4.127 240.944 4.138V3.115C239.921 3.115 239.195 3.467 238.821 4.149ZM242.774 2.048C243.192 2.048 243.489 1.74 243.489 1.344C243.489 0.97 243.181 0.673 242.774 0.673C242.367 0.673 242.059 0.981 242.059 1.366C242.059 1.751 242.367 2.048 242.774 2.048ZM242.246 9H243.302V3.17H242.246V9ZM249.443 3.17L247.397 7.845L245.395 3.17H244.295L246.847 9H247.925L250.477 3.17H249.443ZM253.403 3.115C252.468 3.115 251.599 3.379 250.994 3.863L251.434 4.655C251.885 4.27 252.589 4.028 253.282 4.028C254.327 4.028 254.844 4.545 254.844 5.436V5.645H253.172C251.434 5.645 250.829 6.415 250.829 7.35C250.829 8.362 251.665 9.066 252.985 9.066C253.898 9.066 254.547 8.758 254.899 8.23V9H255.9V5.48C255.9 3.885 254.998 3.115 253.403 3.115ZM253.161 8.252C252.358 8.252 251.874 7.889 251.874 7.306C251.874 6.811 252.171 6.404 253.216 6.404H254.844V7.218C254.58 7.889 253.953 8.252 253.161 8.252ZM260.802 7.9C260.582 8.076 260.285 8.175 259.977 8.175C259.394 8.175 259.064 7.823 259.064 7.196V4.039H260.736V3.17H259.064V1.894H258.008V3.17H257.018V4.039H258.008V7.24C258.008 8.417 258.679 9.066 259.856 9.066C260.329 9.066 260.813 8.934 261.132 8.659L260.802 7.9ZM267.484 6.118C267.484 4.325 266.285 3.115 264.602 3.115C262.919 3.115 261.676 4.358 261.676 6.085C261.676 7.823 262.93 9.066 264.811 9.066C265.779 9.066 266.582 8.736 267.11 8.12L266.527 7.438C266.098 7.911 265.526 8.142 264.844 8.142C263.689 8.142 262.864 7.46 262.732 6.437H267.462C267.473 6.338 267.484 6.206 267.484 6.118ZM264.602 4.006C265.625 4.006 266.362 4.699 266.472 5.678H262.732C262.842 4.688 263.59 4.006 264.602 4.006ZM55.6467 29H60.9157V28.043H56.7467V21.3H55.6467V29ZM62.5519 22.048C62.9699 22.048 63.2669 21.74 63.2669 21.344C63.2669 20.97 62.9589 20.673 62.5519 20.673C62.1449 20.673 61.8369 20.981 61.8369 21.366C61.8369 21.751 62.1449 22.048 62.5519 22.048ZM62.0239 29H63.0799V23.17H62.0239V29ZM72.3892 23.115C71.3992 23.115 70.5852 23.533 70.1452 24.193C69.7602 23.467 69.0122 23.115 68.1212 23.115C67.2412 23.115 66.5262 23.445 66.1082 24.039V23.17H65.0962V29H66.1522V25.997C66.1522 24.732 66.8452 24.061 67.9012 24.061C68.8582 24.061 69.4082 24.622 69.4082 25.766V29H70.4642V25.997C70.4642 24.732 71.1572 24.061 72.2132 24.061C73.1702 24.061 73.7202 24.622 73.7202 25.766V29H74.7762V25.645C74.7762 23.929 73.8082 23.115 72.3892 23.115ZM77.2473 22.048C77.6653 22.048 77.9623 21.74 77.9623 21.344C77.9623 20.97 77.6543 20.673 77.2473 20.673C76.8403 20.673 76.5323 20.981 76.5323 21.366C76.5323 21.751 76.8403 22.048 77.2473 22.048ZM76.7193 29H77.7753V23.17H76.7193V29ZM82.7395 27.9C82.5195 28.076 82.2225 28.175 81.9145 28.175C81.3315 28.175 81.0015 27.823 81.0015 27.196V24.039H82.6735V23.17H81.0015V21.894H79.9455V23.17H78.9555V24.039H79.9455V27.24C79.9455 28.417 80.6165 29.066 81.7935 29.066C82.2665 29.066 82.7505 28.934 83.0695 28.659L82.7395 27.9ZM89.4219 26.118C89.4219 24.325 88.2229 23.115 86.5399 23.115C84.8569 23.115 83.6139 24.358 83.6139 26.085C83.6139 27.823 84.8679 29.066 86.7489 29.066C87.7169 29.066 88.5199 28.736 89.0479 28.12L88.4649 27.438C88.0359 27.911 87.4639 28.142 86.7819 28.142C85.6269 28.142 84.8019 27.46 84.6699 26.437H89.3999C89.4109 26.338 89.4219 26.206 89.4219 26.118ZM86.5399 24.006C87.5629 24.006 88.2999 24.699 88.4099 25.678H84.6699C84.7799 24.688 85.5279 24.006 86.5399 24.006ZM95.3322 20.838V24.05C94.8482 23.423 94.1222 23.115 93.2972 23.115C91.5922 23.115 90.3492 24.303 90.3492 26.085C90.3492 27.867 91.5922 29.066 93.2972 29.066C94.1552 29.066 94.9032 28.736 95.3762 28.076V29H96.3882V20.838H95.3322ZM93.3852 28.142C92.2632 28.142 91.4162 27.328 91.4162 26.085C91.4162 24.842 92.2632 24.039 93.3852 24.039C94.4962 24.039 95.3432 24.842 95.3432 26.085C95.3432 27.328 94.4962 28.142 93.3852 28.142ZM98.6393 29.066C99.0353 29.066 99.3653 28.747 99.3653 28.307C99.3653 27.867 99.0353 27.559 98.6393 27.559C98.2323 27.559 97.8913 27.867 97.8913 28.307C97.8913 28.747 98.2323 29.066 98.6393 29.066ZM109.74 29H110.895L107.397 21.3H106.308L102.821 29H103.954L104.801 27.075H108.893L109.74 29ZM105.186 26.195L106.847 22.422L108.508 26.195H105.186ZM111.889 29H112.945V20.838H111.889V29ZM114.961 29H116.017V20.838H114.961V29ZM127.489 29L125.663 26.415C126.741 26.03 127.357 25.172 127.357 23.984C127.357 22.312 126.147 21.3 124.145 21.3H121.142V29H122.242V26.657H124.145C124.31 26.657 124.475 26.646 124.629 26.635L126.29 29H127.489ZM124.112 25.722H122.242V22.257H124.112C125.52 22.257 126.257 22.884 126.257 23.984C126.257 25.084 125.52 25.722 124.112 25.722ZM129.508 22.048C129.926 22.048 130.223 21.74 130.223 21.344C130.223 20.97 129.915 20.673 129.508 20.673C129.101 20.673 128.793 20.981 128.793 21.366C128.793 21.751 129.101 22.048 129.508 22.048ZM128.98 29H130.036V23.17H128.98V29ZM136.628 23.17V24.072C136.133 23.434 135.341 23.115 134.472 23.115C132.789 23.115 131.513 24.248 131.513 25.931C131.513 27.614 132.789 28.758 134.472 28.758C135.308 28.758 136.067 28.461 136.573 27.856V28.318C136.573 29.638 135.946 30.276 134.571 30.276C133.713 30.276 132.866 29.979 132.327 29.517L131.821 30.331C132.459 30.903 133.537 31.2 134.604 31.2C136.584 31.2 137.629 30.265 137.629 28.208V23.17H136.628ZM134.593 27.834C133.416 27.834 132.58 27.053 132.58 25.931C132.58 24.798 133.416 24.039 134.593 24.039C135.759 24.039 136.595 24.798 136.595 25.931C136.595 27.053 135.759 27.834 134.593 27.834ZM142.76 23.115C141.869 23.115 141.143 23.434 140.703 23.995V20.838H139.647V29H140.703V25.997C140.703 24.732 141.429 24.061 142.551 24.061C143.552 24.061 144.124 24.622 144.124 25.766V29H145.18V25.645C145.18 23.929 144.179 23.115 142.76 23.115ZM150.082 27.9C149.862 28.076 149.565 28.175 149.257 28.175C148.674 28.175 148.344 27.823 148.344 27.196V24.039H150.016V23.17H148.344V21.894H147.288V23.17H146.298V24.039H147.288V27.24C147.288 28.417 147.959 29.066 149.136 29.066C149.609 29.066 150.093 28.934 150.412 28.659L150.082 27.9ZM153.361 29.066C154.912 29.066 155.88 28.395 155.88 27.339C155.88 25.073 152.184 26.195 152.184 24.82C152.184 24.358 152.635 24.017 153.559 24.017C154.131 24.017 154.714 24.138 155.242 24.479L155.693 23.643C155.187 23.313 154.329 23.115 153.57 23.115C152.074 23.115 151.139 23.819 151.139 24.864C151.139 27.185 154.824 26.052 154.824 27.361C154.824 27.856 154.417 28.153 153.438 28.153C152.679 28.153 151.887 27.9 151.392 27.548L150.952 28.384C151.436 28.769 152.393 29.066 153.361 29.066ZM166.655 29L164.829 26.415C165.907 26.03 166.523 25.172 166.523 23.984C166.523 22.312 165.313 21.3 163.311 21.3H160.308V29H161.408V26.657H163.311C163.476 26.657 163.641 26.646 163.795 26.635L165.456 29H166.655ZM163.278 25.722H161.408V22.257H163.278C164.686 22.257 165.423 22.884 165.423 23.984C165.423 25.084 164.686 25.722 163.278 25.722ZM173.415 26.118C173.415 24.325 172.216 23.115 170.533 23.115C168.85 23.115 167.607 24.358 167.607 26.085C167.607 27.823 168.861 29.066 170.742 29.066C171.71 29.066 172.513 28.736 173.041 28.12L172.458 27.438C172.029 27.911 171.457 28.142 170.775 28.142C169.62 28.142 168.795 27.46 168.663 26.437H173.393C173.404 26.338 173.415 26.206 173.415 26.118ZM170.533 24.006C171.556 24.006 172.293 24.699 172.403 25.678H168.663C168.773 24.688 169.521 24.006 170.533 24.006ZM176.553 29.066C178.104 29.066 179.072 28.395 179.072 27.339C179.072 25.073 175.376 26.195 175.376 24.82C175.376 24.358 175.827 24.017 176.751 24.017C177.323 24.017 177.906 24.138 178.434 24.479L178.885 23.643C178.379 23.313 177.521 23.115 176.762 23.115C175.266 23.115 174.331 23.819 174.331 24.864C174.331 27.185 178.016 26.052 178.016 27.361C178.016 27.856 177.609 28.153 176.63 28.153C175.871 28.153 175.079 27.9 174.584 27.548L174.144 28.384C174.628 28.769 175.585 29.066 176.553 29.066ZM185.661 26.118C185.661 24.325 184.462 23.115 182.779 23.115C181.096 23.115 179.853 24.358 179.853 26.085C179.853 27.823 181.107 29.066 182.988 29.066C183.956 29.066 184.759 28.736 185.287 28.12L184.704 27.438C184.275 27.911 183.703 28.142 183.021 28.142C181.866 28.142 181.041 27.46 180.909 26.437H185.639C185.65 26.338 185.661 26.206 185.661 26.118ZM182.779 24.006C183.802 24.006 184.539 24.699 184.649 25.678H180.909C181.019 24.688 181.767 24.006 182.779 24.006ZM188.139 24.149V23.17H187.127V29H188.183V26.096C188.183 24.82 188.887 24.127 190.02 24.127C190.097 24.127 190.174 24.127 190.262 24.138V23.115C189.239 23.115 188.513 23.467 188.139 24.149ZM195.925 23.17L193.879 27.845L191.877 23.17H190.777L193.329 29H194.407L196.959 23.17H195.925ZM203.053 26.118C203.053 24.325 201.854 23.115 200.171 23.115C198.488 23.115 197.245 24.358 197.245 26.085C197.245 27.823 198.499 29.066 200.38 29.066C201.348 29.066 202.151 28.736 202.679 28.12L202.096 27.438C201.667 27.911 201.095 28.142 200.413 28.142C199.258 28.142 198.433 27.46 198.301 26.437H203.031C203.042 26.338 203.053 26.206 203.053 26.118ZM200.171 24.006C201.194 24.006 201.931 24.699 202.041 25.678H198.301C198.411 24.688 199.159 24.006 200.171 24.006ZM208.963 20.838V24.05C208.479 23.423 207.753 23.115 206.928 23.115C205.223 23.115 203.98 24.303 203.98 26.085C203.98 27.867 205.223 29.066 206.928 29.066C207.786 29.066 208.534 28.736 209.007 28.076V29H210.019V20.838H208.963ZM207.016 28.142C205.894 28.142 205.047 27.328 205.047 26.085C205.047 24.842 205.894 24.039 207.016 24.039C208.127 24.039 208.974 24.842 208.974 26.085C208.974 27.328 208.127 28.142 207.016 28.142ZM212.27 29.066C212.666 29.066 212.996 28.747 212.996 28.307C212.996 27.867 212.666 27.559 212.27 27.559C211.863 27.559 211.522 27.867 211.522 28.307C211.522 28.747 211.863 29.066 212.27 29.066Z" fill="white"/>
</svg>
