<svg width="163" height="12" viewBox="0 0 163 12" fill="none" xmlns="http://www.w3.org/2000/svg">
<path d="M4.87147 9.596C6.17947 9.596 7.30747 9.14 8.07547 8.276L7.29547 7.52C6.64747 8.204 5.85547 8.528 4.93147 8.528C3.03547 8.528 1.63147 7.16 1.63147 5.3C1.63147 3.44 3.03547 2.072 4.93147 2.072C5.85547 2.072 6.64747 2.384 7.29547 3.068L8.07547 2.312C7.30747 1.448 6.17947 1.004 4.88347 1.004C2.32747 1.004 0.431469 2.816 0.431469 5.3C0.431469 7.784 2.32747 9.596 4.87147 9.596ZM12.5738 9.572C14.4818 9.572 15.8738 8.216 15.8738 6.32C15.8738 4.424 14.4818 3.08 12.5738 3.08C10.6658 3.08 9.26181 4.424 9.26181 6.32C9.26181 8.216 10.6658 9.572 12.5738 9.572ZM12.5738 8.564C11.3498 8.564 10.4258 7.676 10.4258 6.32C10.4258 4.964 11.3498 4.088 12.5738 4.088C13.7978 4.088 14.7098 4.964 14.7098 6.32C14.7098 7.676 13.7978 8.564 12.5738 8.564ZM21.339 3.08C20.403 3.08 19.587 3.44 19.071 4.148V3.14H17.967V11.828H19.119V8.54C19.647 9.224 20.439 9.572 21.339 9.572C23.199 9.572 24.555 8.276 24.555 6.32C24.555 4.376 23.199 3.08 21.339 3.08ZM21.243 8.564C20.031 8.564 19.107 7.676 19.107 6.32C19.107 4.976 20.031 4.088 21.243 4.088C22.467 4.088 23.391 4.976 23.391 6.32C23.391 7.676 22.467 8.564 21.243 8.564ZM30.9709 3.14L28.7749 8.228L26.5549 3.14H25.3549L28.1629 9.488L27.9589 9.932C27.6469 10.664 27.2989 10.916 26.7469 10.916C26.3149 10.916 25.9189 10.748 25.6069 10.448L25.1149 11.312C25.5109 11.696 26.1349 11.9 26.7469 11.9C27.7189 11.9 28.4509 11.48 29.0149 10.136L32.0989 3.14H30.9709ZM34.778 4.208V3.14H33.674V9.5H34.826V6.332C34.826 4.94 35.594 4.184 36.83 4.184C36.914 4.184 36.998 4.184 37.094 4.196V3.08C35.978 3.08 35.186 3.464 34.778 4.208ZM39.5899 1.916C40.0459 1.916 40.3699 1.58 40.3699 1.148C40.3699 0.74 40.0339 0.416 39.5899 0.416C39.1459 0.416 38.8099 0.752 38.8099 1.172C38.8099 1.592 39.1459 1.916 39.5899 1.916ZM39.0139 9.5H40.1659V3.14H39.0139V9.5ZM47.8574 3.14V4.124C47.3174 3.428 46.4534 3.08 45.5054 3.08C43.6694 3.08 42.2774 4.316 42.2774 6.152C42.2774 7.988 43.6694 9.236 45.5054 9.236C46.4174 9.236 47.2454 8.912 47.7974 8.252V8.756C47.7974 10.196 47.1134 10.892 45.6134 10.892C44.6774 10.892 43.7534 10.568 43.1654 10.064L42.6134 10.952C43.3094 11.576 44.4854 11.9 45.6494 11.9C47.8094 11.9 48.9494 10.88 48.9494 8.636V3.14H47.8574ZM45.6374 8.228C44.3534 8.228 43.4414 7.376 43.4414 6.152C43.4414 4.916 44.3534 4.088 45.6374 4.088C46.9094 4.088 47.8214 4.916 47.8214 6.152C47.8214 7.376 46.9094 8.228 45.6374 8.228ZM55.0466 3.08C54.0746 3.08 53.2826 3.428 52.8026 4.04V0.595999H51.6506V9.5H52.8026V6.224C52.8026 4.844 53.5946 4.112 54.8186 4.112C55.9106 4.112 56.5346 4.724 56.5346 5.972V9.5H57.6866V5.84C57.6866 3.968 56.5946 3.08 55.0466 3.08ZM63.5346 8.3C63.2946 8.492 62.9706 8.6 62.6346 8.6C61.9986 8.6 61.6386 8.216 61.6386 7.532V4.088H63.4626V3.14H61.6386V1.748H60.4866V3.14H59.4066V4.088H60.4866V7.58C60.4866 8.864 61.2186 9.572 62.5026 9.572C63.0186 9.572 63.5466 9.428 63.8946 9.128L63.5346 8.3ZM70.59 8.456L73.158 5.984C74.298 4.892 74.538 4.16 74.538 3.344C74.538 1.904 73.41 1.004 71.658 1.004C70.35 1.004 69.234 1.472 68.586 2.276L69.402 2.984C69.918 2.36 70.65 2.072 71.55 2.072C72.726 2.072 73.338 2.6 73.338 3.464C73.338 3.992 73.17 4.52 72.282 5.384L68.862 8.684V9.5H74.898V8.456H70.59ZM79.7814 9.596C81.7374 9.596 83.2014 8.036 83.2014 5.3C83.2014 2.564 81.7374 1.004 79.7814 1.004C77.8134 1.004 76.3494 2.564 76.3494 5.3C76.3494 8.036 77.8134 9.596 79.7814 9.596ZM79.7814 8.528C78.4614 8.528 77.5494 7.448 77.5494 5.3C77.5494 3.152 78.4614 2.072 79.7814 2.072C81.0894 2.072 82.0014 3.152 82.0014 5.3C82.0014 7.448 81.0894 8.528 79.7814 8.528ZM86.4142 8.456L88.9822 5.984C90.1222 4.892 90.3622 4.16 90.3622 3.344C90.3622 1.904 89.2342 1.004 87.4822 1.004C86.1742 1.004 85.0582 1.472 84.4102 2.276L85.2262 2.984C85.7422 2.36 86.4742 2.072 87.3742 2.072C88.5502 2.072 89.1622 2.6 89.1622 3.464C89.1622 3.992 88.9942 4.52 88.1062 5.384L84.6862 8.684V9.5H90.7222V8.456H86.4142ZM95.4248 4.628L97.6208 1.916V1.1H92.0768V2.144H96.1208L94.0088 4.736V5.576H94.6808C96.1208 5.576 96.7568 6.152 96.7568 7.04C96.7568 7.952 96.0368 8.528 94.7768 8.528C93.7448 8.528 92.8088 8.156 92.2448 7.628L91.6928 8.576C92.4008 9.212 93.5768 9.596 94.7768 9.596C96.9128 9.596 97.9568 8.444 97.9568 7.028C97.9568 5.732 97.1048 4.784 95.4248 4.628ZM100.38 7.928C99.924 7.928 99.576 8.264 99.576 8.744C99.576 9.104 99.78 9.38 100.08 9.488L99.636 11.276H100.392L100.956 9.608C101.112 9.164 101.16 8.984 101.16 8.744C101.16 8.276 100.836 7.928 100.38 7.928ZM107.201 9.5H108.401V1.1H107.201V9.5ZM114.644 3.08C113.636 3.08 112.82 3.452 112.352 4.1V3.14H111.248V9.5H112.4V6.224C112.4 4.844 113.192 4.112 114.416 4.112C115.508 4.112 116.132 4.724 116.132 5.972V9.5H117.284V5.84C117.284 3.968 116.192 3.08 114.644 3.08ZM120.492 1.916C120.948 1.916 121.272 1.58 121.272 1.148C121.272 0.74 120.936 0.416 120.492 0.416C120.048 0.416 119.712 0.752 119.712 1.172C119.712 1.592 120.048 1.916 120.492 1.916ZM119.916 9.5H121.068V3.14H119.916V9.5ZM126.984 8.3C126.744 8.492 126.42 8.6 126.084 8.6C125.448 8.6 125.088 8.216 125.088 7.532V4.088H126.912V3.14H125.088V1.748H123.936V3.14H122.856V4.088H123.936V7.58C123.936 8.864 124.668 9.572 125.952 9.572C126.468 9.572 126.996 9.428 127.344 9.128L126.984 8.3ZM131.75 9.572C133.658 9.572 135.05 8.216 135.05 6.32C135.05 4.424 133.658 3.08 131.75 3.08C129.842 3.08 128.438 4.424 128.438 6.32C128.438 8.216 129.842 9.572 131.75 9.572ZM131.75 8.564C130.526 8.564 129.602 7.676 129.602 6.32C129.602 4.964 130.526 4.088 131.75 4.088C132.974 4.088 133.886 4.964 133.886 6.32C133.886 7.676 132.974 8.564 131.75 8.564ZM141.033 9.5H142.233V1.1H141.033V9.5ZM148.476 3.08C147.468 3.08 146.652 3.452 146.184 4.1V3.14H145.08V9.5H146.232V6.224C146.232 4.844 147.024 4.112 148.248 4.112C149.34 4.112 149.964 4.724 149.964 5.972V9.5H151.116V5.84C151.116 3.968 150.024 3.08 148.476 3.08ZM156.555 9.572C157.695 9.572 158.643 9.092 159.147 8.204L158.271 7.652C157.863 8.276 157.239 8.564 156.543 8.564C155.295 8.564 154.359 7.7 154.359 6.32C154.359 4.964 155.295 4.088 156.543 4.088C157.239 4.088 157.863 4.376 158.271 5L159.147 4.436C158.643 3.548 157.695 3.08 156.555 3.08C154.599 3.08 153.195 4.424 153.195 6.32C153.195 8.216 154.599 9.572 156.555 9.572ZM161.649 9.572C162.081 9.572 162.441 9.224 162.441 8.744C162.441 8.264 162.081 7.928 161.649 7.928C161.205 7.928 160.833 8.264 160.833 8.744C160.833 9.224 161.205 9.572 161.649 9.572Z" fill="#869194"/>
</svg>
