<svg width="83" height="28" viewBox="0 0 83 28" fill="none" xmlns="http://www.w3.org/2000/svg">
<g opacity="0.35">
<path fill-rule="evenodd" clip-rule="evenodd" d="M0.83313 27.1717H4.93117V10.6709H0.83313V27.1717Z" fill="white"/>
<path fill-rule="evenodd" clip-rule="evenodd" d="M2.8822 0.28418C1.29037 0.28418 0 1.57481 0 3.16664C0 4.75847 1.29037 6.04885 2.8822 6.04885C4.47404 6.04885 5.76441 4.75847 5.76441 3.16664C5.76441 1.57481 4.47404 0.28418 2.8822 0.28418Z" fill="white"/>
<path fill-rule="evenodd" clip-rule="evenodd" d="M18.7035 10.3262C14.0592 10.3262 10.2808 14.1046 10.2808 18.7489V27.1717H14.3788V18.7489C14.3788 16.3644 16.319 14.4242 18.7035 14.4242C21.0881 14.4242 23.0282 16.3644 23.0282 18.7489V27.1717H27.1263V18.7489C27.1263 14.1046 23.3479 10.3262 18.7035 10.3262Z" fill="white"/>
<path fill-rule="evenodd" clip-rule="evenodd" d="M46.0225 5.2041H41.9244V19.6243C41.9244 23.7862 45.3102 27.1722 49.472 27.1722H52.7679V23.0741H49.472C47.57 23.0741 46.0225 21.5266 46.0225 19.6243V14.7694H51.4872V10.6714H46.0225V5.2041Z" fill="white"/>
<path fill-rule="evenodd" clip-rule="evenodd" d="M66.1269 23.0799C63.8107 23.9289 61.2353 22.7351 60.3863 20.4187C59.5372 18.1023 60.731 15.5272 63.0475 14.6781C65.3639 13.8291 67.9392 15.0226 68.7883 17.3393C69.6374 19.6557 68.4433 22.2308 66.1269 23.0799ZM81.8892 12.5372C81.3411 11.0419 79.6847 10.274 78.1895 10.8224C77.3775 11.1197 76.7828 11.7455 76.4939 12.4934L76.4924 12.4893C75.9596 13.8672 73.7556 15.8427 70.617 12.7533L70.6183 12.7572C68.3224 10.5022 64.8462 9.62933 61.629 10.8085C57.1791 12.4398 54.8857 17.3869 56.5167 21.8369C58.1477 26.2871 63.0951 28.5805 67.5453 26.9495C70.7623 25.7702 72.851 22.8578 73.1461 19.6531L73.1476 19.657C73.5461 15.2711 76.5047 15.3543 77.8019 16.0615L77.8004 16.0576C78.504 16.4418 79.3623 16.5345 80.1742 16.2372C81.6695 15.6891 82.4373 14.0324 81.8892 12.5372Z" fill="white"/>
<path fill-rule="evenodd" clip-rule="evenodd" d="M32.4761 27.1717H36.5741V10.6709H32.4761V27.1717Z" fill="white"/>
<path fill-rule="evenodd" clip-rule="evenodd" d="M34.5251 0.28418C32.9333 0.28418 31.6429 1.57481 31.6429 3.16664C31.6429 4.75847 32.9333 6.04885 34.5251 6.04885C36.117 6.04885 37.4074 4.75847 37.4074 3.16664C37.4074 1.57481 36.117 0.28418 34.5251 0.28418Z" fill="white"/>
</g>
</svg>
