<svg width="109" height="14" viewBox="0 0 109 14" fill="none" xmlns="http://www.w3.org/2000/svg">
<path d="M10.8323 13H13.7223L8.40127 1.1H5.68127L0.377273 13H3.19927L4.25327 10.45H9.77827L10.8323 13ZM5.13727 8.359L7.02427 3.803L8.91127 8.359H5.13727ZM18.8669 13.204C22.2669 13.204 23.9159 11.504 23.9159 9.515C23.9159 5.146 16.9969 6.659 16.9969 4.466C16.9969 3.718 17.6259 3.106 19.2579 3.106C20.3119 3.106 21.4509 3.412 22.5559 4.041L23.4059 1.95C22.3009 1.253 20.7709 0.896 19.2749 0.896C15.8919 0.896 14.2599 2.579 14.2599 4.602C14.2599 9.022 21.1789 7.492 21.1789 9.719C21.1789 10.45 20.5159 10.994 18.8839 10.994C17.4559 10.994 15.9599 10.484 14.9569 9.753L14.0219 11.827C15.0759 12.643 16.9799 13.204 18.8669 13.204ZM34.5222 13.204C37.9222 13.204 39.5712 11.504 39.5712 9.515C39.5712 5.146 32.6522 6.659 32.6522 4.466C32.6522 3.718 33.2812 3.106 34.9132 3.106C35.9672 3.106 37.1062 3.412 38.2112 4.041L39.0612 1.95C37.9562 1.253 36.4262 0.896 34.9302 0.896C31.5472 0.896 29.9152 2.579 29.9152 4.602C29.9152 9.022 36.8342 7.492 36.8342 9.719C36.8342 10.45 36.1712 10.994 34.5392 10.994C33.1112 10.994 31.6152 10.484 30.6122 9.753L29.6772 11.827C30.7312 12.643 32.6352 13.204 34.5222 13.204ZM44.19 10.79V8.036H49.715V5.894H44.19V3.31H50.446V1.1H41.453V13H50.667V10.79H44.19ZM55.5953 10.79V8.036H61.1203V5.894H55.5953V3.31H61.8513V1.1H52.8583V13H62.0723V10.79H55.5953ZM72.4575 1.1V8.325L66.5415 1.1H64.2635V13H66.9835V5.775L72.9165 13H75.1775V1.1H72.4575ZM88.5705 13.204C92.3105 13.204 95.0815 10.603 95.0815 7.05C95.0815 3.497 92.3105 0.896 88.5705 0.896C84.8135 0.896 82.0595 3.514 82.0595 7.05C82.0595 10.586 84.8135 13.204 88.5705 13.204ZM88.5705 10.858C86.4455 10.858 84.8475 9.311 84.8475 7.05C84.8475 4.789 86.4455 3.242 88.5705 3.242C90.6955 3.242 92.2935 4.789 92.2935 7.05C92.2935 9.311 90.6955 10.858 88.5705 10.858ZM105.345 1.1V8.325L99.4292 1.1H97.1512V13H99.8712V5.775L105.804 13H108.065V1.1H105.345Z" fill="#C4C4C4"/>
</svg>
