<svg width="38" height="37" viewBox="0 0 38 37" fill="none" xmlns="http://www.w3.org/2000/svg">
<path fill-rule="evenodd" clip-rule="evenodd" d="M29.2159 20.7543C29.8453 21.026 30.4903 21.266 31.1354 21.5059C31.2736 21.5868 31.4102 21.6629 31.5435 21.7373C31.8314 21.8976 32.1045 22.0498 32.3478 22.2242C32.5259 22.3517 32.7547 22.702 32.6918 22.829C32.5976 23.0196 32.2791 23.2573 32.0705 23.2727C31.525 23.3191 30.9149 23.3335 30.3676 23.221C28.6455 22.8831 26.9548 22.4817 25.2475 22.0326C24.249 21.7759 23.3289 21.3604 22.614 20.6116C22.2238 20.1815 21.9775 19.704 22.2603 19.1324C22.543 18.5608 23.0875 18.4349 23.6505 18.5157C24.1812 18.5805 24.6971 18.7566 25.1972 18.9644C25.875 19.2601 26.5408 19.5597 27.2066 19.8594C27.8724 20.159 28.5382 20.4586 29.2159 20.7543ZM5.52156 14.3717C5.26232 14.1645 4.98642 13.9095 5.14172 13.4329C5.32555 13.4843 5.5113 13.535 5.69845 13.5861L5.69898 13.5863C6.44662 13.7904 7.21683 14.0007 7.97762 14.2821C10.2182 15.0345 12.4275 15.8504 14.6367 16.6664C14.9431 16.7784 15.2503 16.9699 15.5096 17.1771C16.0613 17.6871 16.1653 18.3709 15.8014 18.8628C15.4375 19.3548 14.892 19.4012 14.1815 19.0498C13.3575 18.6028 12.4855 18.1715 11.6457 17.7562C11.1925 17.5321 10.7374 17.3114 10.2836 17.0914L10.2834 17.0913L10.2834 17.0913C9.3792 16.6529 8.47981 16.2168 7.60867 15.7597C6.98964 15.4535 6.4252 15.0371 5.86071 14.6207C5.74778 14.5374 5.6349 14.4541 5.52156 14.3717ZM24.1548 6.11743C24.0438 6.25413 23.927 6.39088 23.8095 6.52856C23.4906 6.90201 23.1659 7.28234 22.9357 7.6883L22.7559 7.97893C21.4133 10.1495 20.0863 12.2947 18.8041 14.4983C18.5833 14.8634 18.4603 15.356 18.449 15.7851C18.4072 16.3573 18.9397 16.5811 19.3856 16.2483C19.6404 16.0582 19.8464 15.8043 19.972 15.5503C21.561 12.5813 23.0853 9.58037 24.3189 6.43571C24.3503 6.37219 24.3494 6.29269 24.3485 6.21325L24.1548 6.11743ZM18.1999 22.7367C18.4155 22.3822 18.631 22.0276 18.8357 21.6678C18.9003 21.6997 18.9649 21.7317 19.0775 21.7479C19.0308 21.8829 18.9962 22.014 18.9615 22.145C18.9268 22.2761 18.8922 22.4071 18.8455 22.5421C18.4171 23.7334 17.9927 24.9167 17.5683 26.1C17.1438 27.2833 16.7194 28.4666 16.291 29.6579C16.2129 29.8564 16.1429 30.0589 16.0729 30.2614C16.0029 30.464 15.9329 30.6665 15.8548 30.865C15.6978 31.1826 15.4429 31.3727 15.0886 31.2765C14.7019 31.1643 14.5378 30.846 14.5979 30.4805C14.6433 30.2263 14.7043 29.9403 14.8299 29.6862C15.0021 29.2985 15.1733 28.9079 15.3448 28.5163C15.8759 27.3042 16.4112 26.0826 16.9929 24.9064C17.3378 24.1547 17.7689 23.4457 18.1999 22.7367Z" fill="#1F94AA"/>
</svg>
