<svg width="170" height="10" viewBox="0 0 170 10" fill="none" xmlns="http://www.w3.org/2000/svg">
<path d="M45.3326 9.36451C60.46 8.54317 75.6037 7.89583 90.7558 7.41556C98.266 7.1789 105.768 6.984 113.278 6.83087C117.099 6.7543 120.928 6.6847 124.749 6.62901C125.637 6.61509 126.524 6.60117 127.411 6.59421C129.416 6.56637 121.799 6.67078 123.015 6.64989C123.287 6.64989 123.558 6.64293 123.837 6.63597C124.314 6.63597 124.79 6.62205 125.275 6.61509C127.19 6.59421 129.096 6.57333 131.01 6.55245C139.548 6.47588 148.085 6.455 156.623 6.48284C159.137 6.53853 161.643 6.46892 164.149 6.28098C165.785 6.24618 167.395 6.05825 168.989 5.71022C170.123 5.44572 170.312 5.11857 169.548 4.7427C168.767 4.0188 167.74 3.64293 166.467 3.62901C161.331 2.4666 155.908 1.96544 150.641 1.54085C143.812 0.984001 136.951 0.60117 130.09 0.580288C113.188 0.517643 96.2858 0.677736 79.3918 0.997922C64.1658 1.2833 48.948 1.7427 33.7303 2.36915C25.1354 2.72414 16.5405 3.13481 7.95379 3.60117C6.0639 3.58029 4.20688 3.74038 2.38272 4.08145C1.44599 4.06753 0.648946 4.33899 0.00802612 4.90975C0.550343 5.55013 1.28987 5.91207 2.2266 6.00952C3.98502 6.55941 5.80096 6.93528 7.6662 7.13713C13.8618 8.07681 20.1641 8.64061 26.4419 8.98168C32.7196 9.32275 39.0713 9.70558 45.3408 9.36451H45.3326Z" fill="#29A2BA"/>
</svg>
