<svg width="97" height="6" viewBox="0 0 97 6" fill="none" xmlns="http://www.w3.org/2000/svg">
<path d="M2.38339 5.99705C13.6374 5.83389 24.8881 5.6731 36.1421 5.50995C47.3961 5.3468 58.5329 5.18838 69.7282 5.02522L88.6738 4.7533C90.0479 4.73439 91.4091 4.48375 92.6693 4.08651C93.8188 3.72473 95.2451 3.13833 96.0624 2.41715C96.5314 2.00335 97.3096 1.29872 96.87 0.724144C96.4304 0.149563 95.4535 -0.0112247 94.6166 0.000597973C83.3626 0.163751 72.1119 0.324538 60.8579 0.487691C49.6625 0.648479 38.4671 0.809267 27.2718 0.97242L8.32625 1.24434C6.95207 1.26326 5.59091 1.5139 4.3307 1.91114C3.1812 2.27291 1.75491 2.85931 0.937567 3.5805C0.468651 3.99429 -0.30962 4.69892 0.129989 5.2735C0.569598 5.84808 1.54651 6.01123 2.38339 5.99941V5.99705Z" fill="#29A2BA"/>
</svg>
