<svg width="65" height="5" viewBox="0 0 65 5" fill="none" xmlns="http://www.w3.org/2000/svg">
<path d="M1.59712 4.99754C9.13845 4.86158 16.6776 4.72759 24.2189 4.59163C31.7603 4.45567 39.223 4.32365 46.7251 4.18769L59.4206 3.96109C60.3414 3.94532 61.2535 3.73646 62.098 3.40542C62.8683 3.10394 63.824 2.61527 64.3717 2.01429C64.686 1.66946 65.2075 1.08227 64.9129 0.603453C64.6183 0.124636 63.9637 -0.0093539 63.4029 0.000498311C55.8616 0.136459 48.3224 0.270449 40.7811 0.406409C33.279 0.540399 25.777 0.674389 18.2749 0.81035L5.57945 1.03695C4.6586 1.05271 3.74649 1.26158 2.90201 1.59261C2.13173 1.89409 1.17597 2.38276 0.628267 2.98375C0.314044 3.32857 -0.207477 3.91577 0.0871061 4.39458C0.381689 4.8734 1.03632 5.00936 1.59712 4.99951V4.99754Z" fill="#29A2BA"/>
</svg>
