<svg width="134" height="45" viewBox="0 0 134 45" fill="none" xmlns="http://www.w3.org/2000/svg">
<rect width="134" height="44.6667" rx="12" fill="#112D35"/>
<path fill-rule="evenodd" clip-rule="evenodd" d="M70.2108 16.0735V9.13428H71.0125V16.0735H70.2108ZM45.7052 9.42448H43.4244V16.0734H45.7052C47.682 16.0734 48.8431 14.8432 48.8431 12.7466C48.8431 10.6547 47.6774 9.42448 45.7052 9.42448ZM44.2538 15.3272V10.1711H45.65C47.1613 10.1711 47.9953 11.0927 47.9953 12.7561C47.9953 14.4056 47.1567 15.3272 45.65 15.3272H44.2538ZM52.57 16.1195C51.1739 16.1195 50.28 15.1288 50.28 13.5899C50.28 12.0463 51.1739 11.0602 52.57 11.0602C53.9662 11.0602 54.8601 12.0463 54.8601 13.5899C54.8601 15.1288 53.9662 16.1195 52.57 16.1195ZM54.0445 13.59C54.0445 14.7281 53.4962 15.4054 52.57 15.4054C51.6485 15.4054 51.0955 14.7281 51.0955 13.59C51.0955 12.4519 51.6439 11.7746 52.57 11.7746C53.4962 11.7746 54.0445 12.4473 54.0445 13.59ZM62.7431 11.1064L61.3516 16.0735H60.5406L59.4071 12.2123H59.3887L58.2552 16.0735H57.4443L56.0527 11.1064H56.8453L57.8543 15.1658H57.8728L59.0109 11.1064H59.785L60.9231 15.1658H60.9415L61.9506 11.1064H62.7431ZM64.18 11.1063V16.0734H64.9818V13.189C64.9818 12.3366 65.5209 11.7744 66.3364 11.7744C67.1197 11.7744 67.5436 12.2168 67.5436 13.0277V16.0734H68.3454V12.8895C68.3454 11.7606 67.6681 11.0602 66.576 11.0602C65.8065 11.0602 65.2674 11.3505 64.9541 11.9126H64.9357V11.1063H64.18ZM72.6567 13.5899C72.6567 15.1288 73.5506 16.1195 74.9468 16.1195C76.3429 16.1195 77.2368 15.1288 77.2368 13.5899C77.2368 12.0463 76.3429 11.0602 74.9468 11.0602C73.5506 11.0602 72.6567 12.0463 72.6567 13.5899ZM74.9468 15.4054C75.8729 15.4054 76.4213 14.7281 76.4213 13.59C76.4213 12.4473 75.8729 11.7746 74.9468 11.7746C74.0206 11.7746 73.4723 12.4519 73.4723 13.59C73.4723 14.7281 74.0252 15.4054 74.9468 15.4054ZM81.8622 14.1845C81.8622 14.8987 81.2679 15.424 80.4569 15.424C79.8302 15.424 79.4294 15.1245 79.4294 14.6637C79.4294 14.1845 79.8164 13.9127 80.5629 13.8666L81.8622 13.7836V14.1845ZM80.2864 16.1195C79.2773 16.1195 78.6092 15.5389 78.6092 14.6589C78.6092 13.8064 79.2635 13.3042 80.4707 13.2305L81.8622 13.1475V12.7328C81.8622 12.1154 81.4568 11.7744 80.7241 11.7744C80.1482 11.7744 79.7197 12.0693 79.6229 12.5393H78.8534C78.8764 11.7007 79.692 11.0602 80.7334 11.0602C81.9083 11.0602 82.664 11.6869 82.664 12.6637V16.0734H81.9037V15.2118H81.8853C81.6042 15.7647 80.9822 16.1195 80.2864 16.1195ZM84.2391 13.5899C84.2391 15.1059 85.1192 16.1196 86.3679 16.1196C87.0867 16.1196 87.6534 15.8063 87.976 15.2349H87.9898V16.0735H88.7547V9.13428H87.9529V11.9127H87.9345C87.6304 11.369 87.059 11.0603 86.3494 11.0603C85.1146 11.0603 84.2391 12.074 84.2391 13.5899ZM86.5107 11.7746C85.6398 11.7746 85.0593 12.4934 85.0593 13.59C85.0593 14.6912 85.6398 15.4054 86.5107 15.4054C87.3723 15.4054 87.9575 14.6728 87.9575 13.59C87.9575 12.5118 87.3723 11.7746 86.5107 11.7746ZM93.4116 13.5899C93.4116 15.1288 94.3055 16.1195 95.7016 16.1195C97.0978 16.1195 97.9917 15.1288 97.9917 13.5899C97.9917 12.0463 97.0978 11.0602 95.7016 11.0602C94.3055 11.0602 93.4116 12.0463 93.4116 13.5899ZM95.7016 15.4054C96.6278 15.4054 97.1761 14.7281 97.1761 13.59C97.1761 12.4473 96.6278 11.7746 95.7016 11.7746C94.7755 11.7746 94.2272 12.4519 94.2272 13.59C94.2272 14.7281 94.7801 15.4054 95.7016 15.4054ZM99.5898 11.1063V16.0734H100.392V13.189C100.392 12.3366 100.931 11.7744 101.746 11.7744C102.53 11.7744 102.953 12.2168 102.953 13.0277V16.0734H103.755V12.8895C103.755 11.7606 103.078 11.0602 101.986 11.0602C101.216 11.0602 100.677 11.3505 100.364 11.9126H100.345V11.1063H99.5898ZM108.85 9.98679H109.652V11.1065H110.619V11.77H109.652V14.7512C109.652 15.2073 109.845 15.4147 110.269 15.4147C110.366 15.4147 110.559 15.4009 110.615 15.3916V16.069C110.518 16.092 110.287 16.1105 110.099 16.1105C109.2 16.1105 108.85 15.7372 108.85 14.7834V11.77H108.159V11.1065H108.85V9.98679ZM112.31 9.13428V16.0735H113.111V13.2167C113.111 12.3459 113.673 11.7745 114.512 11.7745C115.3 11.7745 115.77 12.2537 115.77 13.0462V16.0735H116.572V12.9034C116.572 11.7975 115.839 11.0603 114.752 11.0603C113.991 11.0603 113.438 11.3506 113.13 11.9127H113.111V9.13428H112.31ZM120.372 11.7653C119.594 11.7653 119.031 12.3321 118.976 13.1707H121.709C121.69 12.3275 121.156 11.7653 120.372 11.7653ZM122.483 14.6542H121.69C121.547 15.1196 121.063 15.4145 120.441 15.4145C119.557 15.4145 118.976 14.8017 118.976 13.8571V13.811H122.543V13.4977C122.543 11.9956 121.713 11.0602 120.386 11.0602C119.031 11.0602 118.147 12.0693 118.147 13.6083C118.147 15.1473 119.027 16.1195 120.423 16.1195C121.483 16.1195 122.344 15.5067 122.483 14.6542Z" fill="white"/>
<path fill-rule="evenodd" clip-rule="evenodd" d="M82.7062 30.7363H80.7375C80.8622 33.0614 82.7864 34.5312 85.637 34.5312C88.6836 34.5312 90.5989 33.0258 90.5989 30.6205C90.5989 28.7409 89.5032 27.6808 86.8664 27.0572L85.4499 26.7098C83.793 26.3 83.116 25.7655 83.116 24.8569C83.116 23.7166 84.1761 22.9327 85.7261 22.9327C87.2761 22.9327 88.3362 23.7077 88.452 24.9905H90.394C90.3317 22.7723 88.4698 21.249 85.7528 21.249C83.0091 21.249 81.076 22.7723 81.076 24.9905C81.076 26.7811 82.1717 27.8857 84.5324 28.4558L86.1982 28.8567C87.8641 29.2665 88.5678 29.8633 88.5678 30.861C88.5678 32.0102 87.4009 32.8476 85.7796 32.8476C84.087 32.8476 82.8487 32.0102 82.7062 30.7363ZM52.3379 34.3173L51.162 30.843H46.2625L45.0866 34.3173H43.011L47.6522 21.4626H49.808L54.4492 34.3173H52.3379ZM48.6855 23.6006L46.7702 29.2396H50.6542L48.739 23.6006H48.6855ZM64.7471 29.4803C64.7471 26.4782 63.1258 24.5451 60.6582 24.5451C59.3131 24.5451 58.1194 25.2044 57.576 26.2466H57.5314V24.6431H55.6696V37.4799H57.6027V32.7318H57.6383C58.2174 33.8008 59.3131 34.4155 60.7028 34.4155C63.1347 34.4155 64.7471 32.4735 64.7471 29.4803ZM60.1683 32.7765C61.7361 32.7765 62.7695 31.4848 62.7695 29.4804C62.7695 27.485 61.7361 26.1843 60.1683 26.1843C58.6361 26.1843 57.5938 27.5117 57.5849 29.4804C57.5938 31.458 58.6271 32.7765 60.1683 32.7765ZM75.3658 29.4803C75.3658 26.4782 73.7445 24.5451 71.2769 24.5451C69.9317 24.5451 68.738 25.2044 68.1946 26.2466H68.1501V24.6431H66.2883V37.4799H68.2214V32.7318H68.257C68.836 33.8008 69.9317 34.4155 71.3214 34.4155C73.7534 34.4155 75.3658 32.4735 75.3658 29.4803ZM70.7869 32.7765C72.3548 32.7765 73.3881 31.4848 73.3881 29.4804C73.3881 27.485 72.3548 26.1843 70.7869 26.1843C69.2547 26.1843 68.2124 27.5117 68.2035 29.4804C68.2124 31.458 69.2458 32.7765 70.7869 32.7765ZM92.7725 22.4695H94.6967V24.6431H96.5496V26.1664H94.6967V31.5737C94.6967 32.4111 95.0709 32.8031 95.8815 32.8031C96.0864 32.8031 96.416 32.7763 96.5407 32.7585V34.2818C96.3269 34.3353 95.8726 34.3798 95.4539 34.3798C93.5208 34.3798 92.7725 33.6404 92.7725 31.7697V26.1664H91.4363V24.6431H92.7725V22.4695ZM97.7433 29.4801C97.7433 32.5267 99.525 34.4331 102.322 34.4331C105.119 34.4331 106.892 32.5267 106.892 29.4801C106.892 26.4335 105.11 24.5182 102.322 24.5182C99.5339 24.5182 97.7433 26.4424 97.7433 29.4801ZM102.322 32.8299C103.961 32.8299 104.932 31.5917 104.932 29.4804C104.932 27.3692 103.961 26.122 102.322 26.122C100.683 26.122 99.7032 27.3781 99.7032 29.4804C99.7032 31.5917 100.683 32.8299 102.322 32.8299ZM110.286 24.6431H108.442V34.3175H110.375V28.545C110.375 27.182 111.177 26.3001 112.451 26.3001C112.736 26.3001 113.137 26.3624 113.297 26.4248V24.6164C113.146 24.5719 112.87 24.5451 112.656 24.5451C111.516 24.5451 110.625 25.1954 110.322 26.2733H110.286V24.6431ZM118.598 26.0951C117.208 26.0951 116.201 27.1106 116.094 28.5983H121.003C120.958 27.0928 120.005 26.0951 118.598 26.0951ZM122.838 31.4845H120.994C120.727 32.3307 119.845 32.8652 118.722 32.8652C117.137 32.8652 116.085 31.7606 116.085 30.0859V29.9701H122.936V29.293C122.936 26.3622 121.261 24.5182 118.607 24.5182C115.898 24.5182 114.135 26.4869 114.135 29.5157C114.135 32.5445 115.881 34.4331 118.687 34.4331C120.86 34.4331 122.562 33.2216 122.838 31.4845Z" fill="white"/>
<path fill-rule="evenodd" clip-rule="evenodd" d="M26.6247 9.15381C25.2941 9.20945 23.6817 10.0375 22.7275 11.1507C21.8697 12.1394 21.1209 13.7172 21.3227 15.2301C22.8084 15.346 24.3222 14.4783 25.2469 13.3645C26.1698 12.2487 26.7947 10.7002 26.6247 9.15381ZM26.2486 35.4829C28.0515 35.4495 29.1934 33.8521 30.2974 32.2449C31.507 30.4845 32.0411 28.7776 32.1208 28.5231C32.1252 28.5089 32.1282 28.4993 32.1299 28.4943C32.1291 28.494 32.1268 28.4931 32.1232 28.4916C31.9498 28.4214 28.6127 27.0698 28.5796 23.163C28.547 19.9368 31.1297 18.3319 31.414 18.1552C31.4239 18.1491 31.431 18.1447 31.4352 18.142C29.8806 15.8773 27.46 15.5668 26.5975 15.5313C25.3376 15.4044 24.1154 15.8841 23.1167 16.2761C22.4821 16.5251 21.9378 16.7388 21.5315 16.7388C21.0793 16.7388 20.5201 16.5177 19.8925 16.2696C19.071 15.9448 18.1324 15.5737 17.1635 15.5915C14.9191 15.625 12.848 16.8927 11.6921 18.8963C9.35805 22.9309 11.0936 28.9093 13.3675 32.1806C14.4805 33.7806 15.804 35.5813 17.5445 35.5164C18.3216 35.4854 18.8747 35.2507 19.4467 35.0081C20.1078 34.7277 20.7941 34.4366 21.8807 34.4366C22.9156 34.4366 23.5701 34.7187 24.1997 34.9901C24.8019 35.2496 25.3812 35.4993 26.2486 35.4829Z" fill="white"/>
</svg>
