<svg width="111" height="5" viewBox="0 0 111 5" fill="none" xmlns="http://www.w3.org/2000/svg">
<path d="M2.72739 4.99754C15.6057 4.86158 28.4802 4.72759 41.3585 4.59163C54.2368 4.45567 66.9809 4.32365 79.7921 4.18769L101.472 3.96109C103.045 3.94532 104.602 3.73646 106.044 3.40542C107.36 3.10394 108.992 2.61527 109.927 2.01429C110.464 1.66946 111.354 1.08227 110.851 0.603453C110.348 0.124636 109.23 -0.0093539 108.273 0.000498311C95.3943 0.136459 82.5198 0.270449 69.6415 0.406409C56.8303 0.540399 44.0191 0.674389 31.2079 0.81035L9.52798 1.03695C7.95546 1.05271 6.39784 1.26158 4.95575 1.59262C3.64034 1.89409 2.0082 2.38276 1.07289 2.98375C0.536291 3.32857 -0.354307 3.91577 0.14875 4.39458C0.651808 4.8734 1.76971 5.00936 2.72739 4.99951V4.99754Z" fill="#29A2BA"/>
</svg>
